<svg width="14" height="14" viewBox="0 0 14 14" fill="none" xmlns="http://www.w3.org/2000/svg">
<path d="M6.61396 0.239813C6.68645 0.0929657 6.83599 6.50682e-09 6.99977 6.50682e-09C7.16354 -2.83973e-05 7.31312 0.0929372 7.3856 0.239785L9.06379 3.63963C9.2216 3.95932 9.5266 4.18095 9.87943 4.23219L13.6316 4.77763C13.7936 4.80121 13.9283 4.91471 13.9789 5.07048C14.0295 5.22621 13.9873 5.3972 13.87 5.51153L11.1552 8.15823C10.8999 8.40713 10.7834 8.76567 10.8436 9.11702L11.4842 12.8535C11.5119 13.0149 11.4455 13.178 11.313 13.2742C11.1805 13.3705 11.0049 13.3831 10.86 13.3069L7.50388 11.5429C7.18831 11.377 6.81131 11.377 6.49569 11.5429L3.13992 13.3069C2.99495 13.3831 2.8193 13.3704 2.68682 13.2741C2.55432 13.1779 2.488 13.0147 2.51566 12.8533L3.15654 9.1172C3.21684 8.76573 3.10032 8.40713 2.84497 8.15817L0.129942 5.51156C0.0126907 5.39723 -0.0295457 5.22624 0.0210698 5.0705C0.0716854 4.91477 0.206319 4.80127 0.368391 4.77766L4.12042 4.23225C4.47325 4.18095 4.77828 3.95935 4.93609 3.63961L6.61396 0.239813Z" fill="#FFB800"/>
</svg>
