<svg width="20" height="20" viewBox="0 0 20 20" fill="none" xmlns="http://www.w3.org/2000/svg">
<path d="M13.75 4.68752H12.3024L13.5145 3.47545C13.6016 3.3884 13.6706 3.28504 13.7178 3.1713C13.7649 3.05755 13.7891 2.93564 13.7891 2.81252C13.7891 2.68941 13.7649 2.56749 13.7178 2.45375C13.6706 2.34 13.6016 2.23665 13.5145 2.14959C13.4275 2.06254 13.3241 1.99348 13.2104 1.94636C13.0966 1.89925 12.9747 1.875 12.8516 1.875C12.7285 1.875 12.6066 1.89925 12.4928 1.94636C12.3791 1.99348 12.2757 2.06254 12.1887 2.14959L9.37617 4.96209C9.28911 5.04915 9.22005 5.1525 9.17293 5.26625C9.12581 5.37999 9.10156 5.50191 9.10156 5.62502C9.10156 5.74814 9.12581 5.87005 9.17293 5.9838C9.22005 6.09755 9.28911 6.2009 9.37617 6.28795L12.1887 9.10045C12.3645 9.27627 12.603 9.37505 12.8516 9.37505C13.1002 9.37505 13.3387 9.27627 13.5145 9.10045C13.6904 8.92463 13.7891 8.68617 13.7891 8.43752C13.7891 8.18888 13.6904 7.95041 13.5145 7.77459L12.3024 6.56252H13.75C14.6617 6.56252 15.5361 6.92469 16.1807 7.56934C16.8254 8.214 17.1875 9.08834 17.1875 10C17.1875 10.9117 16.8254 11.786 16.1807 12.4307C15.5361 13.0754 14.6617 13.4375 13.75 13.4375C13.5014 13.4375 13.2629 13.5363 13.0871 13.7121C12.9113 13.8879 12.8125 14.1264 12.8125 14.375C12.8125 14.6237 12.9113 14.8621 13.0871 15.0379C13.2629 15.2137 13.5014 15.3125 13.75 15.3125C16.6793 15.3125 19.0625 12.9293 19.0625 10C19.0625 7.07073 16.6793 4.68752 13.75 4.68752Z" fill="currentColor"/>
<path d="M7.85043 10.8996C7.67461 10.7237 7.43615 10.625 7.1875 10.625C6.93885 10.625 6.70039 10.7237 6.52457 10.8996C6.34875 11.0754 6.24998 11.3139 6.24998 11.5625C6.24998 11.6856 6.27423 11.8075 6.32134 11.9213C6.36846 12.035 6.43751 12.1384 6.52457 12.2254L7.73668 13.4375H6.25C5.33832 13.4375 4.46398 13.0753 3.81932 12.4307C3.17466 11.786 2.8125 10.9117 2.8125 10C2.8125 9.08832 3.17466 8.21398 3.81932 7.56932C4.46398 6.92466 5.33832 6.5625 6.25 6.5625C6.49864 6.5625 6.7371 6.46373 6.91291 6.28791C7.08873 6.1121 7.1875 5.87364 7.1875 5.625C7.1875 5.37636 7.08873 5.1379 6.91291 4.96209C6.7371 4.78627 6.49864 4.6875 6.25 4.6875C3.3207 4.6875 0.9375 7.07066 0.9375 10C0.9375 12.9293 3.3207 15.3125 6.25 15.3125H7.73668L6.52457 16.5246C6.34875 16.7004 6.24998 16.9389 6.24998 17.1875C6.24998 17.4361 6.34875 17.6746 6.52457 17.8504C6.70039 18.0262 6.93885 18.125 7.1875 18.125C7.43615 18.125 7.67461 18.0262 7.85043 17.8504L10.6629 15.0379C10.75 14.9509 10.819 14.8475 10.8662 14.7338C10.9133 14.62 10.9375 14.4981 10.9375 14.375C10.9375 14.2519 10.9133 14.13 10.8662 14.0162C10.819 13.9025 10.75 13.7991 10.6629 13.7121L7.85043 10.8996Z" fill="currentColor"/>
</svg>
