<?xml version="1.0" encoding="utf-8"?>
<svg xmlns="http://www.w3.org/2000/svg" xmlns:xlink="http://www.w3.org/1999/xlink">
<symbol fill="none" viewBox="0 0 12 12" id="calendar" xmlns="http://www.w3.org/2000/svg">
<path d="M11.49 1.083H9.683v-.56c0-.28-.23-.51-.51-.51s-.51.23-.51.51v.56h-5.35v-.56c0-.28-.23-.51-.51-.51s-.509.229-.509.51v.56H.51c-.28 0-.51.23-.51.51v9.885c0 .28.23.51.51.51h10.955c.28 0 .51-.23.535-.51V1.592c0-.28-.23-.51-.51-.51Zm-.51 9.91H.995V2.103h1.299v.382c0 .28.23.51.51.51a.523.523 0 0 0 .51-.484v-.408h5.35v.382c0 .28.229.51.509.51s.51-.204.51-.484v-.408h1.299v8.892Z" fill="#2B2B2B"/>
</symbol>
<symbol fill="none" viewBox="0 0 17 17" id="clock" xmlns="http://www.w3.org/2000/svg">
<path d="M8.5 0C3.815 0 .002 3.813.002 8.5c0 4.687 3.813 8.5 8.5 8.5 4.687 0 8.5-3.813 8.5-8.5C17 3.813 13.188 0 8.5 0Zm0 15.781c-4.014 0-7.28-3.266-7.28-7.281S4.485 1.218 8.5 1.218c4.016 0 7.282 3.267 7.282 7.282 0 4.015-3.266 7.281-7.281 7.281Z" fill="#2B2B2B"/>
<path d="M12.871 8.357H8.877V3.991a.61.61 0 1 0-1.219 0v4.976c0 .336.273.609.61.609h4.603a.61.61 0 1 0 0-1.219Z" fill="#2B2B2B"/>
</symbol>
<symbol fill="none" viewBox="0 0 28 22" id="compare" xmlns="http://www.w3.org/2000/svg">
<path d="m27.707 7.293-7-7A1 1 0 0 0 19 1v3h-7a1 1 0 1 0 0 2h8a1 1 0 0 0 1-1V3.414L25.586 8 21 12.586V11a1 1 0 0 0-1-1H9V7a1 1 0 0 0-1.707-.707l-7 7a1 1 0 0 0 0 1.414l7 7A1 1 0 0 0 9 21v-3h7a1 1 0 1 0 0-2H8a1 1 0 0 0-1 1v1.586L2.414 14 7 9.414V11a1 1 0 0 0 1 1h11v3a1 1 0 0 0 1.707.707l7-7a1 1 0 0 0 0-1.414Z" fill="#2B2B2B"/>
</symbol>
<symbol fill="none" viewBox="0 0 12 10" id="diplom" xmlns="http://www.w3.org/2000/svg">
<path d="M11.531.781H.47A.469.469 0 0 0 0 1.25v7.5c0 .259.21.469.469.469H11.53c.26 0 .469-.21.469-.469v-7.5a.469.469 0 0 0-.469-.469Zm-8.648.938h1.875V3.53L4.12 3a.469.469 0 0 0-.6 0l-.637.53V1.72Zm8.18 6.562H.937V1.72h1.008V4.53a.47.47 0 0 0 .77.36L3.82 3.97l1.106.921a.47.47 0 0 0 .77-.36V1.72h5.367V8.28Zm-1.008-1.875c0 .26-.21.469-.47.469h-7.17a.469.469 0 1 1 0-.938h7.17c.26 0 .47.21.47.47Zm-3.47-1.875c0-.259.21-.468.47-.468h2.53a.469.469 0 1 1 0 .937h-2.53a.469.469 0 0 1-.47-.469Z" fill="#2B2B2B"/>
</symbol>
<symbol viewBox="0 0 32 32" id="fb" xmlns="http://www.w3.org/2000/svg">
<path d="m21.95 5.005-3.306-.004c-3.206 0-5.277 2.124-5.277 5.415v2.495H10.05v4.515h3.317l-.004 9.575h4.641l.004-9.575h3.806l-.003-4.514h-3.803v-2.117c0-1.018.241-1.533 1.566-1.533l2.366-.001.01-4.256z"/>
</symbol>
<symbol viewBox="0 0 32 32" id="instagram" xmlns="http://www.w3.org/2000/svg">
<path d="M20.445 5h-8.891A6.559 6.559 0 0 0 5 11.554v8.891A6.559 6.559 0 0 0 11.554 27h8.891a6.56 6.56 0 0 0 6.554-6.555v-8.891A6.557 6.557 0 0 0 20.445 5zm4.342 15.445a4.343 4.343 0 0 1-4.342 4.342h-8.891a4.341 4.341 0 0 1-4.341-4.342v-8.891a4.34 4.34 0 0 1 4.341-4.341h8.891a4.342 4.342 0 0 1 4.341 4.341l.001 8.891z"/><path d="M16 10.312c-3.138 0-5.688 2.551-5.688 5.688s2.551 5.688 5.688 5.688 5.688-2.551 5.688-5.688-2.55-5.688-5.688-5.688zm0 9.163a3.475 3.475 0 1 1-.001-6.95 3.475 3.475 0 0 1 .001 6.95zm5.7-10.484a1.363 1.363 0 1 1-1.364 1.364c0-.752.51-1.364 1.364-1.364z"/>
</symbol><symbol fill="none" viewBox="0 0 20 20" id="search" xmlns="http://www.w3.org/2000/svg"><g clip-path="url(#ga)" fill="#B5B5B5"><path d="M8.808 0C3.95 0 0 3.951 0 8.808c0 4.856 3.951 8.807 8.808 8.807 4.856 0 8.807-3.95 8.807-8.807S13.665 0 8.808 0Zm0 15.99c-3.96 0-7.182-3.223-7.182-7.182 0-3.96 3.222-7.182 7.182-7.182 3.96 0 7.181 3.222 7.181 7.182 0 3.96-3.222 7.181-7.181 7.181Z"/>
<path d="m19.762 18.612-4.661-4.661a.812.812 0 1 0-1.15 1.15l4.661 4.66a.81.81 0 0 0 1.15 0 .813.813 0 0 0 0-1.149Z"/>
</g><defs>
<clipPath id="ga">
<path fill="#fff" d="M0 0h20v20H0z"/>
</clipPath>
</defs>
</symbol>


 <symbol fill="none" viewBox="0 0 12 12" id="shuffle" xmlns="http://www.w3.org/2000/svg"><g clip-path="url(#ha)" fill="#8C8C8C">
  <path d="M4.106 4.33 4.66 5.44l.56-1.118L5 3.882A2.486 2.486 0 0 0 2.764 2.5H0v1h2.764a1.492 1.492 0 0 1 1.342.83ZM10.353 7.146l-.707.708.647.646H8.236a1.492 1.492 0 0 1-1.342-.83L6.338 6.56 5.78 7.677l.22.441A2.486 2.486 0 0 0 8.237 9.5h2.057l-.647.646.707.707 1.5-1.5a.502.502 0 0 0 0-.707l-1.5-1.5Z"/>
  <path d="m11.854 2.646-1.5-1.5-.708.708.647.646H8.236A2.486 2.486 0 0 0 6 3.882L4.106 7.671a1.492 1.492 0 0 1-1.342.829H0v1h2.764A2.486 2.486 0 0 0 5 8.118L6.894 4.33A1.492 1.492 0 0 1 8.236 3.5h2.057l-.647.646.708.708 1.5-1.5a.502.502 0 0 0 0-.708Z"/>
  </g>
 <defs>
  <clipPath id="ha">
  <path fill="#fff" d="M0 0h12v12H0z"/>
 </clipPath>
</defs>
</symbol>


<symbol fill="none" viewBox="0 0 12 12" id="suitcase" xmlns="http://www.w3.org/2000/svg">
  <path d="M11.53 2.667H9.287V1.352a.47.47 0 0 0-.47-.47H3.183a.47.47 0 0 0-.47.47v1.315H.47A.47.47 0 0 0 0 3.136v7.512c0 .26.21.47.47.47h11.06c.26 0 .47-.21.47-.47V3.136a.47.47 0 0 0-.47-.47ZM3.654 1.82h4.694v.846H3.654V1.82ZM.938 3.606h10.122v1.072L6 6.396.939 4.678V3.606Zm0 6.572V5.67l4.91 1.668a.47.47 0 0 0 .302 0l4.91-1.668v4.51H.939Z" fill="#2B2B2B"/>
</symbol>

<symbol viewBox="0 0 32 32" id="telegram" xmlns="http://www.w3.org/2000/svg">
  <path d="m29.919 6.163-4.225 19.925c-.319 1.406-1.15 1.756-2.331 1.094l-6.438-4.744-3.106 2.988c-.344.344-.631.631-1.294.631l.463-6.556L24.919 8.72c.519-.462-.113-.719-.806-.256l-14.75 9.288-6.35-1.988c-1.381-.431-1.406-1.381.288-2.044l24.837-9.569c1.15-.431 2.156.256 1.781 2.013z"/>
</symbol>

<symbol viewBox="-2.5 0 32 32" id="vk" xmlns="http://www.w3.org/2000/svg">
  <path d="M16.563 15.75c-.5-.188-.5-.906-.531-1.406-.125-1.781.5-4.5-.25-5.656-.531-.688-3.094-.625-4.656-.531-.438.063-.969.156-1.344.344s-.75.5-.75.781c0 .406.938.344 1.281.875.375.563.375 1.781.375 2.781 0 1.156-.188 2.688-.656 2.75-.719.031-1.125-.688-1.5-1.219a20.851 20.851 0 0 1-2.063-3.563c-.281-.656-.438-1.375-.844-1.656-.625-.438-1.75-.469-2.844-.438-1 .031-2.438-.094-2.719.5-.219.656.25 1.281.5 1.813 1.281 2.781 2.656 5.219 4.344 7.531 1.563 2.156 3.031 3.875 5.906 4.781.813.25 4.375.969 5.094 0 .25-.375.188-1.219.313-1.844s.281-1.25.875-1.281c.5-.031.781.406 1.094.719.344.344.625.625.875.938.594.594 1.219 1.406 1.969 1.719 1.031.438 2.625.313 4.125.25 1.219-.031 2.094-.281 2.188-1 .063-.563-.563-1.375-.938-1.844-.938-1.156-1.375-1.5-2.438-2.563-.469-.469-1.063-.969-1.063-1.531-.031-.344.25-.656.5-1 1.094-1.625 2.188-2.781 3.188-4.469.281-.5.938-1.656.688-2.219-.281-.625-1.844-.438-2.813-.438-1.25 0-2.875-.094-3.188.156-.594.406-.844 1.063-1.125 1.688-.625 1.438-1.469 2.906-2.344 4-.313.375-.906 1.156-1.25 1.031z"/>
</symbol>

<symbol viewBox="-2.5 0 19 19" class="lcf-icon-svg" id="youtube" xmlns="http://www.w3.org/2000/svg">
  <path fill-rule="evenodd" d="M13.07 6.503a1.592 1.592 0 0 0-1.12-1.128A37.622 37.622 0 0 0 7 5.11a37.622 37.622 0 0 0-4.95.266A1.592 1.592 0 0 0 .93 6.503a16.7 16.7 0 0 0-.265 3.07A16.7 16.7 0 0 0 .93 12.64a1.592 1.592 0 0 0 1.12 1.128 37.62 37.62 0 0 0 4.95.266 37.62 37.62 0 0 0 4.95-.266 1.592 1.592 0 0 0 1.12-1.128 16.7 16.7 0 0 0 .265-3.069 16.7 16.7 0 0 0-.265-3.07zM8.95 9.587 5.701 7.74v3.694z"/>
</symbol>

<symbol  viewBox="0 0 12 10" id="levels" xmlns="http://www.w3.org/2000/svg">
  <rect y="6" width="2" height="4" rx="1" fill="#2A2A2A"/>
  <rect x="5" y="4" width="2" height="6" rx="1" fill="#C4C4C4"/>
  <rect x="10" width="2" height="10" rx="1" fill="#C4C4C4"/>
</symbol>

<symbol viewBox="0 0 14 14" fill="none"  id="rating" xmlns="http://www.w3.org/2000/svg">
 <path d="M6.61396 0.239813C6.68645 0.0929657 6.83599 6.50682e-09 6.99977 6.50682e-09C7.16354 -2.83973e-05 7.31312 0.0929372 7.3856 0.239785L9.06379 3.63963C9.2216 3.95932 9.5266 4.18095 9.87943 4.23219L13.6316 4.77763C13.7936 4.80121 13.9283 4.91471 13.9789 5.07048C14.0295 5.22621 13.9873 5.3972 13.87 5.51153L11.1552 8.15823C10.8999 8.40713 10.7834 8.76567 10.8436 9.11702L11.4842 12.8535C11.5119 13.0149 11.4455 13.178 11.313 13.2742C11.1805 13.3705 11.0049 13.3831 10.86 13.3069L7.50388 11.5429C7.18831 11.377 6.81131 11.377 6.49569 11.5429L3.13992 13.3069C2.99495 13.3831 2.8193 13.3704 2.68682 13.2741C2.55432 13.1779 2.488 13.0147 2.51566 12.8533L3.15654 9.1172C3.21684 8.76573 3.10032 8.40713 2.84497 8.15817L0.129942 5.51156C0.0126907 5.39723 -0.0295457 5.22624 0.0210698 5.0705C0.0716854 4.91477 0.206319 4.80127 0.368391 4.77766L4.12042 4.23225C4.47325 4.18095 4.77828 3.95935 4.93609 3.63961L6.61396 0.239813Z" fill="#FFB800"/>
</symbol>

<symbol width="20" height="20" viewBox="0 0 20 20"  fill="none"  id="refresh" xmlns="http://www.w3.org/2000/svg">
 <path d="M13.75 4.68752H12.3024L13.5145 3.47545C13.6016 3.3884 13.6706 3.28504 13.7178 3.1713C13.7649 3.05755 13.7891 2.93564 13.7891 2.81252C13.7891 2.68941 13.7649 2.56749 13.7178 2.45375C13.6706 2.34 13.6016 2.23665 13.5145 2.14959C13.4275 2.06254 13.3241 1.99348 13.2104 1.94636C13.0966 1.89925 12.9747 1.875 12.8516 1.875C12.7285 1.875 12.6066 1.89925 12.4928 1.94636C12.3791 1.99348 12.2757 2.06254 12.1887 2.14959L9.37617 4.96209C9.28911 5.04915 9.22005 5.1525 9.17293 5.26625C9.12581 5.37999 9.10156 5.50191 9.10156 5.62502C9.10156 5.74814 9.12581 5.87005 9.17293 5.9838C9.22005 6.09755 9.28911 6.2009 9.37617 6.28795L12.1887 9.10045C12.3645 9.27627 12.603 9.37505 12.8516 9.37505C13.1002 9.37505 13.3387 9.27627 13.5145 9.10045C13.6904 8.92463 13.7891 8.68617 13.7891 8.43752C13.7891 8.18888 13.6904 7.95041 13.5145 7.77459L12.3024 6.56252H13.75C14.6617 6.56252 15.5361 6.92469 16.1807 7.56934C16.8254 8.214 17.1875 9.08834 17.1875 10C17.1875 10.9117 16.8254 11.786 16.1807 12.4307C15.5361 13.0754 14.6617 13.4375 13.75 13.4375C13.5014 13.4375 13.2629 13.5363 13.0871 13.7121C12.9113 13.8879 12.8125 14.1264 12.8125 14.375C12.8125 14.6237 12.9113 14.8621 13.0871 15.0379C13.2629 15.2137 13.5014 15.3125 13.75 15.3125C16.6793 15.3125 19.0625 12.9293 19.0625 10C19.0625 7.07073 16.6793 4.68752 13.75 4.68752Z" fill="currentColor"/>
 <path d="M7.85043 10.8996C7.67461 10.7237 7.43615 10.625 7.1875 10.625C6.93885 10.625 6.70039 10.7237 6.52457 10.8996C6.34875 11.0754 6.24998 11.3139 6.24998 11.5625C6.24998 11.6856 6.27423 11.8075 6.32134 11.9213C6.36846 12.035 6.43751 12.1384 6.52457 12.2254L7.73668 13.4375H6.25C5.33832 13.4375 4.46398 13.0753 3.81932 12.4307C3.17466 11.786 2.8125 10.9117 2.8125 10C2.8125 9.08832 3.17466 8.21398 3.81932 7.56932C4.46398 6.92466 5.33832 6.5625 6.25 6.5625C6.49864 6.5625 6.7371 6.46373 6.91291 6.28791C7.08873 6.1121 7.1875 5.87364 7.1875 5.625C7.1875 5.37636 7.08873 5.1379 6.91291 4.96209C6.7371 4.78627 6.49864 4.6875 6.25 4.6875C3.3207 4.6875 0.9375 7.07066 0.9375 10C0.9375 12.9293 3.3207 15.3125 6.25 15.3125H7.73668L6.52457 16.5246C6.34875 16.7004 6.24998 16.9389 6.24998 17.1875C6.24998 17.4361 6.34875 17.6746 6.52457 17.8504C6.70039 18.0262 6.93885 18.125 7.1875 18.125C7.43615 18.125 7.67461 18.0262 7.85043 17.8504L10.6629 15.0379C10.75 14.9509 10.819 14.8475 10.8662 14.7338C10.9133 14.62 10.9375 14.4981 10.9375 14.375C10.9375 14.2519 10.9133 14.13 10.8662 14.0162C10.819 13.9025 10.75 13.7991 10.6629 13.7121L7.85043 10.8996Z" fill="currentColor"/>
</symbol>

</svg>
